<svg width="33" height="25" viewBox="0 0 33 25" fill="none" xmlns="http://www.w3.org/2000/svg">
<path d="M21.3424 17.053C19.731 16.945 18.464 15.5807 18.464 13.9129C18.464 13.8572 18.465 13.8016 18.4682 13.7459V13.7535C18.465 13.7012 18.4629 13.64 18.4629 13.5778C18.4629 11.9133 19.732 10.5534 21.3339 10.454H21.3424C22.9518 10.5435 24.223 11.9002 24.223 13.5615C24.223 13.6291 24.2209 13.6957 24.2166 13.7623V13.7535C24.2198 13.8081 24.2219 13.8725 24.2219 13.9369C24.2219 15.5992 22.9518 16.9581 21.3499 17.052H21.3414L21.3424 17.053ZM10.7138 17.053C9.10233 16.945 7.83534 15.5807 7.83534 13.9129C7.83534 13.8572 7.83641 13.8016 7.83961 13.7459V13.7535C7.83641 13.7012 7.83427 13.64 7.83427 13.5778C7.83427 11.9133 9.10339 10.5534 10.7053 10.454H10.7138C12.3231 10.5435 13.5944 11.9002 13.5944 13.5615C13.5944 13.6291 13.5922 13.6957 13.588 13.7623V13.7535C13.5912 13.8059 13.5933 13.8671 13.5933 13.9293C13.5933 15.5938 12.3242 16.9537 10.7223 17.053H10.7138ZM27.1025 2.10216C25.2223 1.19406 23.0381 0.475878 20.7516 0.0600304L20.5927 0.0360183C20.5873 0.0349269 20.5809 0.0338356 20.5745 0.0338356C20.5372 0.0338356 20.5052 0.0545733 20.4882 0.0851343C20.2386 0.533726 19.9677 1.09365 19.7235 1.66776L19.6776 1.78891C18.5791 1.60882 17.3122 1.50622 16.0217 1.50622C14.7313 1.50622 13.4643 1.60882 12.2282 1.80637L12.3658 1.78782C12.0778 1.1002 11.8027 0.541367 11.4987 0L11.5425 0.0840429C11.5243 0.0523905 11.4913 0.0327437 11.4539 0.0327437C11.4486 0.0327437 11.4422 0.0327441 11.4369 0.0338356C8.99141 0.473696 6.80724 1.19079 4.76598 2.16983L4.92702 2.09998C4.90889 2.10762 4.89396 2.12072 4.88437 2.13709C1.84061 6.5477 0.019043 12.0356 0.019043 17.959C0.019043 18.9489 0.0702345 19.9258 0.169418 20.8885L0.159819 20.7684C0.163019 20.8 0.179016 20.8262 0.201413 20.8448C2.4837 22.5922 5.13712 24.0002 8.00065 24.9247L8.18835 24.9771C8.19688 24.9804 8.20754 24.9814 8.21821 24.9814C8.25234 24.9814 8.2822 24.9651 8.30033 24.94C8.8709 24.1541 9.41374 23.2635 9.88406 22.3292L9.93419 22.22C9.94059 22.2069 9.94485 22.1906 9.94485 22.1731C9.94485 22.1284 9.91713 22.0912 9.87873 22.076H9.87767C8.90503 21.6918 8.08276 21.2825 7.29996 20.8131L7.38208 20.859C7.35115 20.8404 7.33089 20.8066 7.33089 20.7684C7.33089 20.7346 7.34689 20.704 7.37142 20.6854C7.53886 20.5566 7.70736 20.4235 7.86733 20.2881C7.8844 20.274 7.9068 20.2652 7.93026 20.2652C7.94519 20.2652 7.95905 20.2685 7.97078 20.274H7.96972C10.3245 21.432 13.0889 22.1087 16.0068 22.1087C18.9247 22.1087 21.6901 21.432 24.158 20.2238L24.0438 20.274C24.0566 20.2674 24.0705 20.2641 24.0865 20.2641C24.11 20.2641 24.1324 20.2729 24.1494 20.2871C24.3094 20.4224 24.4768 20.5577 24.6464 20.6854C24.6709 20.7051 24.6869 20.7356 24.6869 20.7695C24.6869 20.8077 24.6667 20.8404 24.6379 20.859C23.9329 21.2901 23.1107 21.6983 22.2543 22.0356L22.1423 22.0749C22.1039 22.0902 22.0762 22.1284 22.0762 22.172C22.0762 22.1895 22.0804 22.2059 22.0879 22.22C22.6222 23.2678 23.164 24.1563 23.7634 25L23.7207 24.9378C23.7388 24.964 23.7698 24.9814 23.8028 24.9814C23.8135 24.9814 23.8241 24.9793 23.8337 24.9771C26.8892 24.0035 29.5469 22.5955 31.9017 20.7946L31.8324 20.8459C31.8559 20.8284 31.8708 20.8011 31.874 20.7706C31.9668 19.9149 32.019 18.9216 32.019 17.9164C32.019 12.0061 30.1932 6.53242 27.0887 2.05305L27.1441 2.13818C27.1356 2.12072 27.1207 2.10653 27.1036 2.09889L27.1025 2.10216Z" fill="#BABABA"/>
</svg>
