<svg width="29" height="29" viewBox="0 0 29 29" fill="none" xmlns="http://www.w3.org/2000/svg">
<path d="M22.7449 14.4559C22.8543 6.16779 19.619 5.09509 12.2405 5.55533C7.15793 5.15307 5.16231 9.10324 5.1482 13.7746C4.87271 18.3481 6.24666 24.1283 11.7955 23.6427C18.7218 23.5159 23.0663 22.7947 22.7449 14.4559ZM10.6335 0.191815C18.5665 -0.565601 27.7498 0.601329 27.8593 10.7884C28.1383 15.4778 28.2866 20.5043 26.0473 24.7589C23.6632 28.9193 19.6896 28.7453 15.5571 28.8432C11.9226 28.9918 8.17516 29.3143 4.67138 28.093C1.10047 26.8246 0.129152 24.0595 0.206858 20.4427C0.0832378 17.3297 -0.0403864 14.224 0.0125969 11.1073C0.189197 3.72158 3.33272 0.0214884 10.6335 0.191815Z" fill="#BABABA"/>
<path d="M13.6823 17.3951C9.77062 17.2284 10.8667 11.1509 14.4352 11.343C17.9197 12.4266 17.3558 17.3045 13.6823 17.3951Z" fill="#BABABA"/>
<path d="M14.7747 7.12085C20.4058 6.85629 21.0187 9.57791 21.0152 14.7095C21.0572 19.3664 20.1677 21.5299 15.3245 21.7944C11.3813 22.3815 7.16847 22.5373 6.86381 17.2789C6.55213 14.0209 6.08986 9.33146 9.46224 7.62456C11.1432 7.03387 13.1008 7.29117 14.7747 7.12085ZM13.6611 18.8662C19.4638 18.9315 19.8455 9.5163 13.6891 9.94755C8.67079 10.4549 8.15603 18.6923 13.6611 18.8662ZM18.1576 10.9768C19.6564 11.1797 19.4463 8.86759 18.0805 8.93283C16.7568 8.96908 16.9144 10.9405 18.1576 10.9768Z" fill="#BABABA"/>
</svg>
