<svg width="31" height="29" viewBox="0 0 31 29" fill="none" xmlns="http://www.w3.org/2000/svg">
<path d="M21.4816 8.67978C21.4876 8.67978 21.4955 8.67978 21.5035 8.67978C21.7117 8.67978 21.9049 8.74236 22.0633 8.8502L22.0603 8.84827C22.1758 8.94552 22.2535 9.08224 22.2724 9.23629V9.23918C22.2923 9.35664 22.3033 9.49144 22.3033 9.62912C22.3033 9.6917 22.3013 9.75332 22.2963 9.81494V9.80628C22.0722 12.0872 21.1001 17.6186 20.6061 20.1719C20.3969 21.2532 19.9856 21.6152 19.5872 21.6499C18.7216 21.7279 18.0643 21.0972 17.2256 20.5657C15.9129 19.7329 15.1708 19.2149 13.8969 18.4033C12.4238 17.4664 13.379 16.9494 14.2176 16.1079C14.4378 15.8865 18.2535 12.531 18.3282 12.2268C18.3322 12.2085 18.3342 12.1883 18.3342 12.1671C18.3342 12.092 18.3053 12.0236 18.2585 11.9716C18.2067 11.9389 18.142 11.9206 18.0742 11.9206C18.0294 11.9206 17.9866 11.9293 17.9467 11.9437L17.9487 11.9428C17.8172 11.9716 15.7203 13.3112 11.6579 15.9616C11.2147 16.2995 10.6549 16.5132 10.0453 16.5383H10.0394C9.17581 16.4372 8.39195 16.2514 7.64793 15.9866L7.72163 16.0097C6.78737 15.7151 6.04534 15.5601 6.10908 15.0613C6.14295 14.802 6.5128 14.5366 7.21864 14.2651C11.5666 12.4338 14.466 11.2267 15.9169 10.6439C17.5174 9.82264 19.373 9.14675 21.3242 8.70867L21.4806 8.67882L21.4816 8.67978ZM15.3143 0C7.04534 0.0192563 0.349121 6.50382 0.349121 14.5C0.349121 22.5077 7.06426 29 15.3491 29C23.634 29 30.3491 22.5087 30.3491 14.5C30.3491 6.50382 23.6529 0.0192563 15.386 0H15.384C15.3607 0 15.3375 0 15.3143 0Z" fill="#BABABA"/>
</svg>
