<svg width="26" height="29" viewBox="0 0 26 29" fill="none" xmlns="http://www.w3.org/2000/svg">
<path d="M13.8143 0.024178C15.3849 9.18713e-08 16.9439 0.0125725 18.502 0C18.5538 1.96422 19.3443 3.73211 20.6021 5.04159L20.6002 5.03965C21.9539 6.26886 23.7154 7.06576 25.6572 7.20116L25.6841 7.20309V12.0735C23.8497 12.0271 22.1247 11.6006 20.5695 10.8675L20.6482 10.9004C19.896 10.5358 19.2599 10.1615 18.6555 9.74371L18.7054 9.7766C18.6938 13.3056 18.7169 16.8346 18.6814 20.3511C18.5826 22.1431 17.9916 23.7776 17.0437 25.1422L17.0629 25.1122C15.4779 27.4004 12.9106 28.9023 9.99108 28.9913H9.97765C9.85964 28.9971 9.72053 29 9.58045 29C7.92068 29 6.36932 28.5338 5.04726 27.7244L5.08564 27.7466C2.67945 26.2872 1.01967 23.7901 0.712664 20.8859L0.708827 20.8462C0.684842 20.2418 0.673329 19.6373 0.697314 19.0455C1.16742 14.4236 5.00888 10.8482 9.67831 10.8482C10.2031 10.8482 10.7174 10.8936 11.2172 10.9797L11.1635 10.972C11.1875 12.7602 11.1155 14.5493 11.1155 16.3375C10.7097 16.1896 10.2415 16.1035 9.75315 16.1035C7.96098 16.1035 6.43648 17.2582 5.87235 18.8704L5.86372 18.8994C5.73611 19.3124 5.66224 19.7872 5.66224 20.2785C5.66224 20.4778 5.67471 20.675 5.69774 20.8685L5.69582 20.8453C6.01434 22.824 7.69714 24.3172 9.72628 24.3172C9.78481 24.3172 9.84237 24.3162 9.89994 24.3133H9.8913C11.2949 24.2708 12.5134 23.5097 13.2022 22.3849L13.2118 22.3675C13.468 22.0077 13.6435 21.5725 13.7021 21.0996L13.703 21.0861C13.8229 18.9226 13.775 16.7718 13.7865 14.6083C13.798 9.73791 13.775 4.87911 13.8105 0.0212767L13.8143 0.024178Z" fill="#BABABA"/>
</svg>
